<?xml version="1.0" ?><svg width="40px" height="40px" viewBox="0 0 100 100" style="enable-background:new 0 0 100 100;" version="1.1" xml:space="preserve" xmlns="http://www.w3.org/2000/svg" xmlns:xlink="http://www.w3.org/1999/xlink"><style type="text/css">
	.st0{fill:#000000;}
	.st1{fill:#000000;}
	.st2{fill:#000000;}
	.st3{fill:#000000;}
	.st4{fill:#000000;}
	.st5{fill:#000000;}
	.st6{fill:#000000;}
	.st7{fill:#000000;}
	.st8{fill:#000000;}
	.st9{fill:none;stroke:#000000;stroke-width:3;stroke-linecap:round;stroke-linejoin:round;stroke-miterlimit:10;}
	
		.st10{fill-rule:evenodd;clip-rule:evenodd;fill:none;stroke:#000000;stroke-width:3;stroke-linecap:round;stroke-linejoin:round;stroke-miterlimit:10;}
	
		.st11{fill-rule:evenodd;clip-rule:evenodd;fill:none;stroke:#040404;stroke-width:3;stroke-linecap:round;stroke-linejoin:round;stroke-miterlimit:10;}
	.st12{fill-rule:evenodd;clip-rule:evenodd;}
	.st13{fill-rule:evenodd;clip-rule:evenodd;fill:#040404;}
	.st14{fill:url(#SVGID_1_);}
	.st15{fill:url(#SVGID_2_);}
	.st16{fill:url(#SVGID_3_);}
	.st17{fill:url(#SVGID_4_);}
	.st18{fill:url(#SVGID_5_);}
	.st19{fill:url(#SVGID_6_);}
	.st20{fill:url(#SVGID_7_);}
	.st21{fill:url(#SVGID_8_);}
	.st22{fill:url(#SVGID_9_);}
	.st23{fill:url(#SVGID_10_);}
	.st24{fill:url(#SVGID_11_);}
	.st25{fill:url(#SVGID_12_);}
	.st26{fill:url(#SVGID_13_);}
	.st27{fill:url(#SVGID_14_);}
	.st28{fill:url(#SVGID_15_);}
	.st29{fill:url(#SVGID_16_);}
	.st30{fill:url(#SVGID_17_);}
	.st31{fill:url(#SVGID_18_);}
	.st32{fill:url(#SVGID_19_);}
	.st33{fill:url(#SVGID_20_);}
	.st34{fill:url(#SVGID_21_);}
	.st35{fill:url(#SVGID_22_);}
	.st36{fill:url(#SVGID_23_);}
	.st37{fill:url(#SVGID_24_);}
	.st38{fill:url(#SVGID_25_);}
	.st39{fill:url(#SVGID_26_);}
	.st40{fill:url(#SVGID_27_);}
	.st41{fill:url(#SVGID_28_);}
	.st42{fill:url(#SVGID_29_);}
	.st43{fill:url(#SVGID_30_);}
	.st44{fill:url(#SVGID_31_);}
	.st45{fill:url(#SVGID_32_);}
	.st46{fill:url(#SVGID_33_);}
	.st47{fill:url(#SVGID_34_);}
	.st48{fill:url(#SVGID_35_);}
	.st49{fill:url(#SVGID_36_);}
	.st50{fill:url(#SVGID_37_);}
	.st51{fill:url(#SVGID_38_);}
	.st52{fill:url(#SVGID_39_);}
	.st53{fill:url(#SVGID_40_);}
	.st54{fill:url(#SVGID_41_);}
	.st55{fill:url(#SVGID_42_);}
	.st56{fill:url(#SVGID_43_);}
	.st57{fill:url(#SVGID_44_);}
	.st58{fill:url(#SVGID_45_);}
	.st59{fill:#040404;}
	.st60{fill:url(#SVGID_46_);}
	.st61{fill:url(#SVGID_47_);}
	.st62{fill:url(#SVGID_48_);}
	.st63{fill:url(#SVGID_49_);}
	.st64{fill:url(#SVGID_50_);}
	.st65{fill:url(#SVGID_51_);}
	.st66{fill:url(#SVGID_52_);}
	.st67{fill:url(#SVGID_53_);}
	.st68{fill:url(#SVGID_54_);}
	.st69{fill:url(#SVGID_55_);}
	.st70{fill:url(#SVGID_56_);}
	.st71{fill:url(#SVGID_57_);}
	.st72{fill:url(#SVGID_58_);}
	.st73{fill:url(#SVGID_59_);}
	.st74{fill:url(#SVGID_60_);}
	.st75{fill:url(#SVGID_61_);}
	.st76{fill:url(#SVGID_62_);}
	.st77{fill:none;stroke:#000000;stroke-width:3;stroke-miterlimit:10;}
	.st78{fill:none;stroke:#000000;stroke-miterlimit:10;}
	.st79{fill:#000000;}
	.st80{fill:#000000;}
	.st81{fill:#000000;}
	.st82{fill:#000000;}
	.st83{fill:#000000;}
	.st84{fill:#000000;}
	.st85{fill:#000000;}
	.st86{fill:#000000;}
	.st87{fill:#000000;}
	.st88{fill:#000000;}
	.st89{fill:#000000;}
	.st90{fill:#000000;}
	.st91{fill:#000000;}
	.st92{fill:#000000;}
	.st93{fill:#000000;}
	.st94{fill:#000000;}
	.st95{fill:#000000;}
	.st96{fill:#000000;}
	.st97{fill:#000000;}
	.st98{fill:#000000;}
	.st99{fill-rule:evenodd;clip-rule:evenodd;fill:#000000;}
	.st100{fill:#000000;}
	.st101{fill:#000000;}
	.st102{fill:#000000;}
	.st103{fill:#000000;}
	.st104{fill:#000000;}
	.st105{fill:#000000;}
	.st106{fill-rule:evenodd;clip-rule:evenodd;fill:#000000;}
	.st107{fill:#000000;}
	.st108{fill:#000000;}
	.st109{fill-rule:evenodd;clip-rule:evenodd;fill:#000000;}
	.st110{fill:#000000;}
	.st111{fill:#000000;}
	.st112{fill:#000000;}
	.st113{fill:#000000;}
	.st114{fill:#000000;}
	.st115{fill:#000000;}
	.st116{fill:#000000;}
	.st117{fill:#000000;}
	.st118{fill:#000000;}
	.st119{fill:#000000;}
	.st120{fill:#000000;}
	.st121{fill-rule:evenodd;clip-rule:evenodd;fill:#000000;}
	.st122{fill:#000000;}
	.st123{fill:#000000;}
	.st124{fill:#000000;}
	.st125{fill-rule:evenodd;clip-rule:evenodd;fill:#000000;}
	.st126{fill-rule:evenodd;clip-rule:evenodd;fill:#000000;}
	.st127{fill:#000000;}
	.st128{fill:#000000;}
	.st129{fill:#000000;}
	.st130{fill:#000000;}
	.st131{fill:#000000;}
	.st132{fill-rule:evenodd;clip-rule:evenodd;fill:#000000;}
	.st133{fill:#000000;}
	.st134{fill:url(#SVGID_63_);}
	.st135{fill:#000000;}
	.st136{fill:#000000;}
	.st137{fill:#000000;}
	.st138{fill:#000000;}
	.st139{fill:#000000;}
	.st140{fill:#000000;}
	.st141{fill:#000000;}
	.st142{fill:#000000;}
	.st143{fill:#000000;}
	.st144{fill:#000000;}
	.st145{fill:#000000;}
	.st146{fill:#000000;}
	.st147{fill:#000000;}
	.st148{fill:#000000;}
	.st149{fill:#000000;}
	.st150{fill:#000000;}
</style><g id="Layer_1"/><g id="Layer_2"><g><g><path class="st106" d="M97.471,64.602c0,0,0-29.087,0-29.087c0-26.568-6.273-32.889-32.849-32.889     C-0.368,2.209,2.193-0.434,2.629,64.553c0,26.568,6.273,32.889,32.849,32.889h22.059C85.773,97.929,98.181,95.988,97.471,64.602z      M79.195,70.282h-6.916c-2.618,0-3.408-2.124-8.101-6.815c-4.1-3.951-5.829-4.445-6.866-4.445c-1.433,0-1.828,0.395-1.828,2.37     v6.222c0,1.679-0.543,2.667-4.94,2.667c-7.311,0-15.362-4.445-21.093-12.642c-8.595-12-10.917-21.087-10.917-22.914     c0-1.037,0.395-1.976,2.371-1.976h6.916c1.778,0,2.42,0.79,3.112,2.617c2.835,9.294,12.546,24.759,12.695,15.852     c0,0,0-10.173,0-10.173c-0.296-4.642-2.766-5.037-2.766-6.716c0-0.741,0.692-1.58,1.778-1.58h10.867     c1.482,0,1.976,0.741,1.976,2.518v13.729c0.188,3.292,2.236,1.997,4.298-0.148c4.989-5.531,8.496-14.124,8.496-14.124     c0.445-1.037,1.235-1.975,3.013-1.975h6.916c2.075,0,2.519,1.037,2.075,2.519c-0.84,4.049-9.287,15.901-9.287,15.951     c-0.741,1.136-1.037,1.729,0,3.062C72.985,56.762,87.493,69.864,79.195,70.282z"/></g></g></g></svg>